<svg width="866" height="715" viewBox="0 0 866 715" fill="none" xmlns="http://www.w3.org/2000/svg">
<g filter="url(#filter0_i_6_44)">
<path fill-rule="evenodd" clip-rule="evenodd" d="M321.61 712.502C428.813 727.995 382.026 622.708 434.813 593.571C498.937 558.178 847.313 632.596 865.813 535.105C865.813 366.747 639.953 368.059 615.313 296.287C591.426 226.706 545.459 113.821 494.313 60.9202C445.358 10.2847 317.313 -46.0191 245.813 60.9202C194.313 142.374 224.473 181.297 176.369 213.215C125.434 247.013 60.9492 265.121 32.1025 318.996C0.84045 377.382 -11.5408 452.064 16.3076 512.151C43.4127 570.635 117.517 584.228 171.424 619.604C221.872 652.71 261.26 712.843 321.61 712.502Z" fill="#162C4E"/>
</g>
<defs>
<filter id="filter0_i_6_44" x="0.813477" y="0.0494385" width="865" height="718" filterUnits="userSpaceOnUse" color-interpolation-filters="sRGB">
<feFlood flood-opacity="0" result="BackgroundImageFix"/>
<feBlend mode="normal" in="SourceGraphic" in2="BackgroundImageFix" result="shape"/>
<feColorMatrix in="SourceAlpha" type="matrix" values="0 0 0 0 0 0 0 0 0 0 0 0 0 0 0 0 0 0 127 0" result="hardAlpha"/>
<feOffset dy="4"/>
<feGaussianBlur stdDeviation="15"/>
<feComposite in2="hardAlpha" operator="arithmetic" k2="-1" k3="1"/>
<feColorMatrix type="matrix" values="0 0 0 0 0 0 0 0 0 0 0 0 0 0 0 0 0 0 1 0"/>
<feBlend mode="normal" in2="shape" result="effect1_innerShadow_6_44"/>
</filter>
</defs>
</svg>
